<?xml version="1.0" encoding="utf-8"?>
<!-- Generator: Adobe Illustrator 26.3.1, SVG Export Plug-In . SVG Version: 6.00 Build 0)  -->
<svg version="1.1" id="Layer_1" xmlns="http://www.w3.org/2000/svg" xmlns:xlink="http://www.w3.org/1999/xlink" x="0px" y="0px"
	 viewBox="0 0 435.6 124" style="enable-background:new 0 0 435.6 124;" xml:space="preserve">
<style type="text/css">
	.st0{fill-rule:evenodd;clip-rule:evenodd;fill:#19083A;}
	.st1{fill-rule:evenodd;clip-rule:evenodd;fill:#67C3CB;}
	.st2{fill:#19083A;stroke:#19083A;stroke-width:0.216;stroke-miterlimit:45;}
</style>
<path class="st0" d="M195.3,80.4c-6.9,6.7-17.9,6.7-24.8,0c-3.3-3.2-5.2-7.7-5.1-12.4c-0.1-9.5,7.6-17.3,17.1-17.4
	c0.1,0,0.2,0,0.4,0c4.7-0.1,9.2,1.7,12.4,5c3.4,3.2,5.2,7.7,5.1,12.4C200.6,72.6,198.7,77.1,195.3,80.4L195.3,80.4z M44.1,65.8h-3.4
	v8.6h3.3c0,0,0,0,0,0c1.7,4.3,5.9,7.2,10.6,7.2h22.2c4.7,0,8.9-2.8,10.6-7.2l0,0h3.3v-8.6l-3.4,0l0,0c-0.5-1.3-1.3-2.4-2.3-3.4
	c2.4-3.6,3.8-7.9,3.8-12.6c0-12.4-9.8-22.4-22.1-23v-5.5c2.1,0.8,6.7,2.5,7.9,2.5c0.1,0,0.3,0,0.4,0c1.6-0.1,2.9-1.5,2.8-3.1
	c-0.1-1.6-1.5-2.8-3.1-2.7c-1.5,0-8.1,2.6-8.9,2.9c-0.8-0.3-7.3-2.9-8.9-2.9c-1.6-0.1-3,1.1-3.1,2.7c-0.1,1.6,1.1,3,2.8,3.1
	c0.1,0,0.3,0,0.4,0c1.2,0,5.8-1.7,7.9-2.5v5.5c-12.3,0.5-22.1,10.6-22.1,23c0,4.6,1.4,8.9,3.7,12.5C45.4,63.4,44.6,64.5,44.1,65.8
	L44.1,65.8L44.1,65.8z M74.7,105h-0.4c-3.5,0-6.4-3.2-6.4-7.1V84.6H71v13.3c0,2.2,1.5,4,3.2,4h0.4V105L74.7,105z M85.8,102.5v-1.3
	c0-3.3-2.1-5.9-4.8-5.9c-1.7,0-3.2-2.2-3.2-4.9v-5.8h-3.1v5.9c0,4.4,2.9,8,6.3,8c0.8,0,1.7,1.2,1.7,2.8v1.2H85.8L85.8,102.5z
	 M93.9,102.5h-3.1c0-4,0.1-10.7-5.7-10.7c-2.1-0.1-3.8-1.9-3.7-4.1v-3.2h3.1v3.2c0,0.5,0.3,0.9,0.6,0.9
	C93.1,88.7,94,96.6,93.9,102.5L93.9,102.5z M58.1,105h-0.4v-3.1h0.4c1.8,0,3.2-1.8,3.2-4V84.6h3.2v13.3
	C64.5,101.8,61.6,105,58.1,105L58.1,105z M49.7,102.5v-1.3c0-1.6,0.9-2.8,1.7-2.8c3.5,0,6.3-3.6,6.3-8v-5.8h-3.1v5.9
	c0,2.6-1.5,4.9-3.2,4.9c-2.7,0-4.8,2.6-4.8,5.9v1.2H49.7L49.7,102.5z M41.6,102.5h-3.1v-3.8c0-5.5,4-10,8.9-10
	c0.3,0,0.6-0.4,0.6-0.9v-3.2H51v3.2c0.1,2.1-1.6,4-3.7,4.1c-3.2,0-5.7,3.1-5.7,6.9L41.6,102.5L41.6,102.5z M84.7,70.3
	c0,4.4-3.6,7.9-7.9,7.9H54.6c-4.4-0.2-7.8-3.9-7.6-8.2c0.2-4.1,3.5-7.4,7.6-7.6h22.2C81.1,62.4,84.7,65.9,84.7,70.3L84.7,70.3z
	 M182.9,79.8c6.4,0.1,11.7-5,11.8-11.4c0-0.1,0-0.3,0-0.4c0.2-6.5-4.8-11.9-11.3-12.1c-6.5-0.2-11.9,4.8-12.1,11.3
	c0,0.3,0,0.5,0,0.8c-0.1,3.2,1.2,6.2,3.5,8.4C176.8,78.6,179.8,79.8,182.9,79.8L182.9,79.8L182.9,79.8z M128.2,85.4
	c-13.1,0.4-24-9.9-24.3-22.9c-0.4-13.6,9.3-25,23.2-25.2c0.4,0,0.7,0,1.1,0c4.1,0,8.2,1,11.7,3.1c3.5,1.9,6.4,4.8,8.4,8.2l-5.4,3.1
	c-1.3-2.6-3.4-4.7-6-6.1c-2.7-1.5-5.7-2.3-8.8-2.2c-4.9-0.2-9.7,1.7-13.1,5.2c-3.4,3.4-5.2,8.1-5.1,12.9c-0.3,9.7,7.4,17.7,17.1,18
	c0.4,0,0.8,0,1.1,0c3.1,0,6.1-0.8,8.8-2.3c2.5-1.4,4.6-3.5,6-6.1l5.4,3.1c-2,3.5-4.8,6.3-8.3,8.3C136.4,84.4,132.3,85.4,128.2,85.4
	L128.2,85.4z M229.5,51.4h5.8v33.1h-5.8v-4.8c-2.3,3.7-6.4,5.9-10.8,5.7c-3.5,0.2-6.9-1.2-9.4-3.7c-2.4-2.7-3.7-6.3-3.5-9.9V51.4
	h5.7v20c-0.2,2.3,0.6,4.6,2.2,6.3c1.6,1.5,3.8,2.3,6.1,2.2c2.6,0.1,5.1-0.9,7-2.7c1.8-1.8,2.7-4.5,2.7-8.3L229.5,51.4L229.5,51.4z
	 M182.9,79.8L182.9,79.8L182.9,79.8z M153.6,84.6h5.8V36.2h-5.8V84.6z"/>
<polygon class="st1" points="276.2,51.5 264.1,84.2 253,84.2 240.9,51.5 251.8,51.5 258.6,72.2 265.4,51.5 "/>
<path class="st1" d="M280.6,42.8c0-3.3,2.6-5.9,5.9-5.9s5.9,2.6,5.9,5.9c0,3.3-2.6,5.9-5.9,5.9C283.2,48.6,280.6,46,280.6,42.8
	L280.6,42.8z M281.5,51.5h9.8v32.7h-9.8V51.5z"/>
<path class="st1" d="M332,38.5v45.7h-9.8v-3.1c-2.5,2.7-6.1,4.2-9.8,4c-8.6,0-15.6-7.5-15.6-17.2c0-9.7,7.1-17.3,15.6-17.3
	c3.7-0.2,7.3,1.3,9.8,4V38.5L332,38.5L332,38.5L332,38.5z M322.2,67.9c0.2-4.3-3.2-7.9-7.4-8.1c-4.3-0.2-7.9,3.2-8.1,7.4
	c0,0.2,0,0.4,0,0.7c-0.2,4.3,3.2,7.9,7.4,8.1c4.3,0.2,7.9-3.2,8.1-7.4C322.2,68.3,322.2,68.1,322.2,67.9z"/>
<g>
	<path class="st1" d="M355.9,76.4c2.3,0.1,4.6-0.8,6.3-2.5l7.8,4.5c-3.2,4.4-8,6.7-14.2,6.7c-11.2,0-18.1-7.5-18.1-17.2
		c-0.3-9.2,7-17,16.2-17.3c0.4,0,0.8,0,1.2,0c9.5,0,16.6,7.4,16.6,17.3c0,1.3-0.1,2.6-0.4,3.9h-23.2
		C349.3,75.2,352.3,76.4,355.9,76.4L355.9,76.4L355.9,76.4z M361.9,64.5c-1.2-3.9-5.4-6-9.2-4.8c-2.3,0.7-4.1,2.5-4.8,4.8H361.9z"/>
</g>
<path class="st1" d="M397.2,50.9V62c-4-0.6-9.8,1-9.8,7.5v14.7h-9.8V51.5h9.8v5.8C388.7,53,393.1,50.9,397.2,50.9z"/>
<path class="st1" d="M79.3,72.2c0-3.2-2.6-5.7-5.7-5.7c-3.2,0-5.7,2.6-5.7,5.7c-0.1,2,3,2,3.1,0c0-1.4,1.2-2.6,2.6-2.6
	c1.4,0,2.6,1.2,2.6,2.6C76.3,74.2,79.4,74.2,79.3,72.2z"/>
<path class="st1" d="M64.1,72.2c0.1-3.1-2.3-5.8-5.4-6c-3.1-0.1-5.8,2.3-6,5.4c0,0.2,0,0.4,0,0.5c-0.1,2,3,2,3.1,0
	c0.1-1.4,1.3-2.5,2.8-2.4c1.3,0.1,2.3,1.1,2.4,2.4C61.1,74.2,64.2,74.2,64.1,72.2z"/>
<g>
	<path class="st2" d="M400,79.3h-2.3v-0.4h5v0.4h-2.3v5.9H400V79.3z"/>
	<path class="st2" d="M409.8,85.2l0-5.4l-2.6,4.6h-0.2l-2.6-4.5v5.4h-0.5v-6.3h0.4l2.8,4.9l2.8-4.9h0.4l0,6.3H409.8z"/>
</g>
</svg>
