<?xml version="1.0" encoding="utf-8"?>
<!-- Generator: Adobe Illustrator 22.0.1, SVG Export Plug-In . SVG Version: 6.00 Build 0)  -->
<svg version="1.1" id="Calque_1" xmlns="http://www.w3.org/2000/svg" xmlns:xlink="http://www.w3.org/1999/xlink" x="0px" y="0px"
	 viewBox="0 0 331.7 285.2" style="enable-background:new 0 0 331.7 285.2;" xml:space="preserve">
<style type="text/css">
	.st0{fill:#535251;}
	.st1{fill:#FCC92D;}
	.st2{fill:#F49738;}
	.st3{fill:#9D9C9B;}
	.st4{fill:#726F6F;}
	.st5{fill:none;}
	.st6{fill:#F7A82C;}
	.st7{fill:#FFFFFF;}
	.st8{fill:#56535B;}
</style>
<rect x="155" y="229.9" class="st0" width="134.1" height="24.8"/>
<g>
	<path class="st1" d="M134.4,191.2c-3.1,0.1-6.2,0.6-9.1,1.6c-5.7,1.9-10.7,4.8-15.4,8.4c-6,4.5-11.1,10-16.3,15.3
		c-0.5,0.5-0.8,1.2-0.9,1.9c-0.2,1.7,0.8,3.4,2.4,4.1c1.4,0.6,3,0.4,4.3-1c1.8-1.9,3.7-3.8,5.5-5.7c3.6-3.7,7.4-7.3,11.6-10.3
		c3.7-2.6,7.7-4.7,12.1-5.8c2.6-0.7,5.2-0.9,7.8-1v-7.6C135.7,191.2,135.1,191.2,134.4,191.2z"/>
	<path class="st2" d="M241.4,124.1l9.8,17.1c0,0,2.4,1.3,5,0.1c2.6-1.2,2.7-3.9,2.7-3.9l-9.8-19.6L241.4,124.1z"/>
	<g>
		<polygon class="st3" points="303.2,99.8 310.3,96 308.7,93.5 310.2,92.7 315.9,102.6 314.5,103.4 313.1,101.7 305.6,105.4 		"/>
		<path class="st4" d="M304.5,98.6l-2.5-1.3l-5.4,2.9l-4.1-1.6l-17.4,5.8l-0.6-0.9l0.8-0.5l-2.3-1.1l-10.6,11.6l2.8,6.3l-26.5,15.4
			l4.7,8.1l65.7-36.5L304.5,98.6z M271.8,115.3l-2.4-0.9l6.3-7.5l1,0.9l13.3-4.7l3.2,1.4L271.8,115.3z"/>
		<polygon class="st0" points="269.4,114.4 271.3,117.6 294.9,104.6 291.3,102.2 		"/>
		<path class="st0" d="M270.1,112.2L270.1,112.2c-0.2,0.2-0.6,0.2-0.8,0l-2.3-2.2c-0.2-0.2-0.2-0.6,0-0.8l0,0c0.2-0.2,0.6-0.2,0.8,0
			l2.3,2.2C270.3,111.6,270.4,112,270.1,112.2z"/>
		<path class="st0" d="M271.3,110.9L271.3,110.9c-0.2,0.2-0.6,0.2-0.8,0l-2.3-2.2c-0.2-0.2-0.2-0.6,0-0.8l0,0c0.2-0.2,0.6-0.2,0.8,0
			l2.3,2.2C271.5,110.3,271.5,110.6,271.3,110.9z"/>
		<path class="st0" d="M272.5,109.5L272.5,109.5c-0.2,0.2-0.6,0.2-0.8,0l-2.3-2.2c-0.2-0.2-0.2-0.6,0-0.8v0c0.2-0.2,0.6-0.2,0.8,0
			l2.3,2.2C272.7,108.9,272.8,109.3,272.5,109.5z"/>
		<path class="st0" d="M274,107.9L274,107.9c-0.2,0.2-0.6,0.2-0.8,0l-2.3-2.2c-0.2-0.2-0.2-0.6,0-0.8v0c0.2-0.2,0.6-0.2,0.8,0
			l2.3,2.2C274.2,107.3,274.2,107.7,274,107.9z"/>
	</g>
	<polygon class="st3" points="237.3,109.3 225.9,115.5 201.3,71.1 212.8,64.9 	"/>
	<circle class="st3" cx="111.6" cy="69.9" r="6.7"/>
	<circle class="st3" cx="199.1" cy="54" r="12.3"/>
	<circle class="st3" cx="126.6" cy="95.8" r="12.3"/>
	<circle class="st0" cx="111.6" cy="69.9" r="4.5"/>
	<g>
		<path class="st3" d="M83.3,143.5c-15.1,0-27.4,12.2-27.4,27.1c0.1,15.4,12.1,27.4,27.4,27.4c15.1,0,27.3-12.1,27.4-27.1
			C110.7,155.7,98.5,143.5,83.3,143.5z"/>
		<path class="st0" d="M183.9,32.1c2.1,0,3.9-1.7,3.9-3.9c0-2.1-1.7-3.9-3.9-3.9s-3.9,1.7-3.9,3.9C180,30.3,181.7,32.1,183.9,32.1z"
			/>
		<path class="st5" d="M174.6,62.1c1.8,3.2,3.5,6,5.3,9c2.6-1.5,5-2.9,7.5-4.3c-1.8-3.1-3.5-6-5.2-9
			C179.6,59.2,177.2,60.6,174.6,62.1z"/>
		<path class="st5" d="M117,70.1c0.1-2.9-2.2-5.4-5.1-5.5c-3-0.1-5.5,2.2-5.6,5.2c-0.1,2.9,2.3,5.3,5.2,5.4
			C114.4,75.3,116.9,73,117,70.1z M111.6,73.6c-2.1,0-3.7-1.7-3.7-3.7c0-2.1,1.7-3.7,3.7-3.7c2.1,0,3.7,1.7,3.7,3.7
			C115.4,72,113.7,73.6,111.6,73.6z"/>
		<path class="st5" d="M212,65.7c-3.1,1.8-6,3.5-9,5.2c0,0,0,0,0,0.1L212,65.7C212,65.8,212,65.7,212,65.7z"/>
		<path class="st5" d="M126.4,106.8c6.1,0.1,11.2-4.8,11.3-10.9c0.1-6-5.1-11.2-11.1-11.2c-6,0-11,5-11,11
			C115.5,101.7,120.3,106.7,126.4,106.8z M126.7,87.5c4.6,0,8.3,3.8,8.3,8.4c0,4.6-3.8,8.3-8.4,8.2c-4.7,0-8.3-3.7-8.2-8.4
			C118.3,91.1,122,87.4,126.7,87.5z"/>
		<path class="st5" d="M183.8,32.1c2.2,0,3.9-1.7,3.8-4c-0.1-2.1-1.8-3.8-3.9-3.7c-2,0-3.8,1.8-3.8,3.9
			C180.1,30.3,181.8,32,183.8,32.1z M183.9,25.5c1.5,0,2.7,1.2,2.7,2.7c0,1.5-1.2,2.7-2.7,2.7c-1.5,0-2.7-1.2-2.7-2.7
			C181.1,26.7,182.4,25.5,183.9,25.5z"/>
		<path class="st5" d="M99.6,131.1c-3.6-2.1-7-4.1-10.6-6.1c-3.2,5.5-6.2,10.8-9.2,16c4.5,0.5,8.8,0.9,13.3,1.4
			C95.1,138.9,97.3,135.1,99.6,131.1z"/>
		<path class="st5" d="M83.6,146c-13.9,0-24.9,10.9-25,24.8c-0.1,13.5,11,24.7,24.6,24.7c13.7,0,24.8-11,24.9-24.6
			C108.1,157.3,97,146,83.6,146z M83.3,190.8c-11.2,0-20.1-8.9-20.2-20.2c-0.1-11,9-20,20.2-20c11.2,0,20.2,9,20.2,20.2
			C103.5,181.8,94.5,190.8,83.3,190.8z"/>
		<path class="st5" d="M188.1,53.8c-0.1,6.1,4.9,11.2,11.1,11.2c6.1,0,11-4.9,11-11c0-6-4.9-11-11-11.1
			C193.2,42.8,188.2,47.8,188.1,53.8z M193.1,48.2c0.5-0.5,1-0.9,1.6-1.3c1.4-0.9,3-1.4,4.7-1.3c0.9,0,1.7,0.2,2.5,0.4
			c0.3,0.1,0.5,0.2,0.8,0.3c0.7,0.3,1.4,0.8,2,1.3c0.4,0.4,0.8,0.8,1.2,1.3c1.1,1.4,1.7,3.2,1.6,5.2c0,0.6-0.1,1.1-0.2,1.7
			c-0.1,0.4-0.2,0.7-0.3,1.1c-0.3,0.9-0.8,1.7-1.4,2.4c-0.2,0.2-0.4,0.5-0.6,0.7c-0.4,0.4-0.8,0.7-1.2,1c-0.4,0.3-0.9,0.5-1.4,0.7
			c-0.3,0.1-0.6,0.2-1,0.3c-0.5,0.1-1,0.2-1.5,0.2c-0.3,0-0.6,0-0.9,0c-1.4,0-2.8-0.4-3.9-1.1c-0.5-0.3-0.9-0.6-1.3-0.9
			c-0.2-0.2-0.4-0.4-0.6-0.6c-0.7-0.8-1.3-1.7-1.7-2.7c-0.4-1-0.6-2.1-0.6-3.3c0-1.4,0.4-2.8,1.1-3.9
			C192.3,49.2,192.7,48.6,193.1,48.2z"/>
		<path class="st6" d="M103.6,207.5c1.9-0.3,4.2,0.4,4.5-2.4c0.4-3.5-2.2-3.4-4.6-3.4c0-2.4,0.1-4.6,0-6.7c-0.1-1.9,0.5-3.2,1.8-4.7
			c5.6-6.2,7.9-13.5,7.5-21.8c0-1.1,0.2-2.3,0.7-3.2c2.5-4.5,5.1-8.9,7.7-13.4c1.2-2,2.4-4,3.6-6.1c0.6,0.3,0.9,0.5,1.3,0.7
			c2.8,1.5,4.2,1.2,5.8-1.7c0.7-1.2,1.4-2.4,2.1-3.6c1.4-2.6,1-4-1.5-5.6c-2.2-1.3-4.3-2.5-6.6-3.8c1.2-2.1,2.4-4,3.4-6
			c1.2-2.1,0.8-3.4-1.1-4.7c-0.5-0.3-1-0.7-1.6-1.1c2.2-3.8,4.3-7.5,6.5-11.2c0.3-0.6,0.9-1.1,1.4-1.4c2.5-1.8,4.2-4.2,5.3-7.1
			c0.2-0.6,0.5-1.4,1-1.7c3-1.8,6.1-3.5,9.3-5.4c0.5,0.9,1,1.5,1.4,2.3c0.9,1.7,2.2,2,3.8,1.1c1.7-1,2.2-2.2,1.1-4
			c-4-6.9-8-13.8-12-20.7c-1.2-2.1-2.2-2.4-4.1-1.2c-1.8,1-2,2.3-0.9,4c0.4,0.6,0.7,1.3,1.2,2.2c-2.8,1.6-5.4,3.1-8.2,4.7
			c-3.4-4-6.7-7.8-10-11.8c7.4-4.3,14.5-8.4,21.6-12.5c1.8,1.9,2.1,2.1,4.8,0c2.9-2.2-1.3-3.5-0.8-5.6c0,0,0.1-0.1,0.1-0.1l-2.5-4.1
			c-2.1-0.8-1.3-4.6-4.4-3.4c-1.7,0.7-4.2,1.3-2.4,4.1c-7.9,4.6-15.6,9-23.3,13.4c-0.5,0.3-1.2,0.4-1.7,0.3
			c-6.2-1.9-12.8,4.3-9.8,12c2.8,7,5.1,14.1,7.6,21.2c0.2,0.6,0.4,1.5,0.2,2c-2,3.7-4.2,7.3-6.2,10.8c-4.3-2-4.9-1.9-7.2,2.1
			c-0.8,1.4-1.7,2.9-2.6,4.5c-1.4-0.8-2.7-1.5-3.9-2.2c-6.2-3.6-6.3-3.5-9.8,2.6c-2.3,4.1-2.2,4.7,1.8,7.3c0.1,0.1,0.1,0.3,0.2,0.5
			c-3.7,6.4-7.4,12.8-11.2,19.2c-0.5,0.9-1.5,1.8-2.4,2.2c-18,8.9-22.3,32.1-8.7,46.7c0.5,0.5,1.1,1.1,1.2,1.6
			c0.1,3,0.1,6.1,0.1,9.2c-2.2,0-4.4-0.3-4.6,2.5c-0.3,3.4,2.4,3,4.7,3.2c0,0.9-0.1,1.7-0.1,2.5h40.5
			C103.5,209,103.6,208.2,103.6,207.5z M126.6,84.7c6,0,11.2,5.2,11.1,11.2c-0.1,6.1-5.2,11-11.3,10.9c-6-0.1-10.8-5.1-10.8-11.2
			C115.6,89.7,120.6,84.7,126.6,84.7z M111.5,75.2c-2.9-0.1-5.2-2.5-5.2-5.4c0.1-3,2.5-5.3,5.6-5.2c2.9,0.1,5.2,2.6,5.1,5.5
			C116.9,73,114.4,75.3,111.5,75.2z M89,125c3.6,2.1,7,4,10.6,6.1c-2.3,4-4.5,7.8-6.5,11.2c-4.6-0.5-8.8-0.9-13.3-1.4
			C82.8,135.8,85.8,130.5,89,125z M83.2,195.4c-13.5,0-24.6-11.1-24.6-24.7c0.1-13.9,11.1-24.8,25-24.8c13.4,0,24.5,11.3,24.5,24.8
			C108,184.4,96.9,195.4,83.2,195.4z"/>
		<path class="st6" d="M188.3,45.1c-1.4,2.9-4.5,3.8-7,5.4c-1.4,0.9-2.9,1.6-1.4,3.6c-2.6,1.5-5,2.9-7.4,4.3c-0.5-0.8-1-1.5-1.4-2.3
			c-0.9-1.7-2.1-2-3.8-1.1c-1.7,1-2.2,2.2-1.1,4c4.1,7,8.1,13.9,12.1,20.9c0.9,1.7,2.1,2,3.8,1.1c1.8-1,2.2-2.2,1.1-4
			c-0.4-0.7-0.8-1.4-1.2-2.3c1.5-0.9,2.7-1.8,4.1-2.4c1.5-0.7,2.9-2.5,4.8-0.6c0.2,0.2,1.1-0.1,1.7-0.3c0.8-0.3,1.5-0.7,2.2-1.1
			c1.3,1.4,1.5,4.2,4.1,3.1L203,71c0,0,9-5.3,9-5.2l4.6-2.7c0.1-1,0.3-2-0.1-2.7c-1.7-3.2-3.2-6.4-4.1-10.1c-1.6-7.3-8.1-11-16.3-10
			l-7.6,4.2C188.5,44.7,188.4,44.9,188.3,45.1z M179.9,71.1c-1.7-3-3.4-5.8-5.3-9c2.6-1.5,5-2.9,7.5-4.3c1.8,3,3.4,5.9,5.2,9
			C184.8,68.2,182.5,69.6,179.9,71.1z M199.2,42.9c6.1,0.1,11,5,11,11.1c0,6.1-4.9,11-11,11c-6.2,0-11.2-5-11.1-11.2
			C188.2,47.8,193.2,42.8,199.2,42.9z"/>
		<path class="st3" d="M149,51c8.2-4.7,16.4-9.4,24.5-14.2c2.9-1.7,5.6-3.8,9-1.4c0.7,0.5,1.8,0.7,2.2,1.3c1.4,2,2.6,4.2,3.7,6.4
			c0.2,0.3,0.2,0.9,0.1,1.3l7.6-4.2c-0.1,0-0.3,0-0.4,0c-1.2-2.1-2.5-4.3-3.8-6.5c-0.8-1.3-1.2-2.5-0.8-4.3c0.9-4.3-2.1-8.2-6.4-8.7
			c-4.2-0.5-8,2.7-8.1,7.2c0,1.5-0.7,2.1-1.8,2.8c-6.7,3.8-13.4,7.7-20.2,11.6c-3,1.8-6.1,3.5-8.7,5c-0.1,0-0.1,0-0.2-0.1l2.5,4.1
			C148.4,51.4,148.7,51.2,149,51z M183.8,24.3c2.1,0,3.8,1.6,3.9,3.7c0.1,2.2-1.6,4-3.8,4c-2,0-3.8-1.8-3.8-3.8
			C180,26.2,181.8,24.4,183.8,24.3z"/>
		<path class="st7" d="M207.2,55.8c-0.1,0.4-0.2,0.7-0.3,1.1C207,56.6,207.1,56.2,207.2,55.8z"/>
		<path class="st0" d="M83.3,150.6c-11.1,0-20.2,9-20.2,20c0.1,11.3,8.9,20.2,20.2,20.2c11.1,0,20.1-8.9,20.2-20
			C103.5,159.6,94.5,150.6,83.3,150.6z"/>
		<path class="st0" d="M126.5,104.1c4.6,0,8.4-3.6,8.4-8.2c0-4.6-3.7-8.4-8.3-8.4c-4.6,0-8.3,3.6-8.4,8.2
			C118.2,100.3,121.8,104,126.5,104.1z"/>
		<path d="M207.2,55.8c0.1-0.5,0.2-1.1,0.2-1.7c0-2-0.6-3.8-1.6-5.2c1.1,1.4,1.7,3.2,1.6,5.2C207.4,54.7,207.3,55.3,207.2,55.8z"/>
		<path d="M203.6,60.9c-0.4,0.3-0.9,0.5-1.4,0.7C202.7,61.5,203.2,61.2,203.6,60.9z"/>
		<path class="st0" d="M191.4,56.9c0.4,1,1,1.9,1.7,2.7c0.2,0.2,0.4,0.4,0.6,0.6c0.4,0.3,0.8,0.7,1.3,0.9c1.2,0.7,2.5,1.1,3.9,1.1
			c0.3,0,0.6,0,0.9,0c0.5,0,1-0.1,1.5-0.2c0.3-0.1,0.6-0.2,1-0.3c0.5-0.2,1-0.4,1.4-0.7c0.4-0.3,0.9-0.6,1.2-1
			c0.2-0.2,0.4-0.4,0.6-0.7c0.6-0.7,1.1-1.5,1.4-2.4c0.1-0.4,0.2-0.7,0.3-1.1c0.1-0.5,0.2-1.1,0.2-1.7c0-2-0.6-3.8-1.6-5.2
			c-0.4-0.5-0.8-0.9-1.2-1.3c-0.6-0.5-1.3-1-2-1.3c-0.2-0.1-0.5-0.2-0.8-0.3c-0.8-0.3-1.6-0.4-2.5-0.4c-1.7-0.1-3.3,0.4-4.7,1.3
			c-0.6,0.4-1.1,0.8-1.6,1.3c-0.5,0.5-0.9,1-1.2,1.6c-0.7,1.2-1.1,2.5-1.1,3.9C190.8,54.8,191,55.9,191.4,56.9z"/>
		<path d="M205.8,48.9c-0.4-0.5-0.8-0.9-1.2-1.3C205.1,48,205.5,48.4,205.8,48.9z"/>
		<path d="M204.9,60c-0.4,0.4-0.8,0.7-1.2,1C204.1,60.7,204.5,60.3,204.9,60z"/>
		<ellipse transform="matrix(0.3827 -0.9239 0.9239 0.3827 4.3362 146.3036)" class="st6" cx="111.6" cy="69.9" rx="2.5" ry="2.5"/>
	</g>
	<circle class="st6" cx="126.6" cy="95.8" r="4.5"/>
	<polygon class="st6" points="142.8,75.2 171.6,58.8 181.3,75.2 151,92.3 	"/>
	<path class="st0" d="M159,86L159,86c-0.6,0.3-1.4,0.1-1.7-0.5l-6.7-11.7c-0.3-0.6-0.1-1.4,0.5-1.7l0,0c0.6-0.3,1.4-0.1,1.7,0.5
		l6.7,11.7C159.8,84.9,159.6,85.7,159,86z"/>
	<path class="st0" d="M163.3,83.7L163.3,83.7c-0.6,0.3-1.4,0.1-1.7-0.5l-6.7-11.7c-0.3-0.6-0.1-1.4,0.5-1.7l0,0
		c0.6-0.3,1.4-0.1,1.7,0.5l6.7,11.7C164.1,82.6,163.9,83.3,163.3,83.7z"/>
	<path class="st0" d="M167.6,81.3L167.6,81.3c-0.6,0.3-1.4,0.1-1.7-0.5l-6.7-11.7c-0.3-0.6-0.1-1.4,0.5-1.7l0,0
		c0.6-0.3,1.4-0.1,1.7,0.5l6.7,11.7C168.4,80.1,168.2,80.9,167.6,81.3z"/>
	<path class="st0" d="M171.8,78.9L171.8,78.9c-0.6,0.3-1.4,0.1-1.7-0.5l-6.7-11.7c-0.3-0.6-0.1-1.4,0.5-1.7l0,0
		c0.6-0.3,1.4-0.1,1.7,0.5l6.7,11.7C172.6,77.8,172.4,78.6,171.8,78.9z"/>
	<path class="st0" d="M213,88.6L213,88.6c0.5,0.2,1.1,0,1.3-0.5l3.9-8.7c0.2-0.5,0-1.1-0.5-1.3l0,0c-0.5-0.2-1.1,0-1.3,0.5l-3.9,8.7
		C212.2,87.7,212.5,88.3,213,88.6z"/>
	<path class="st0" d="M215.8,93.9L215.8,93.9c0.5,0.2,1.1,0,1.3-0.5l3.9-8.7c0.2-0.5,0-1.1-0.5-1.3h0c-0.5-0.2-1.1,0-1.3,0.5
		l-3.9,8.7C215.1,93.1,215.3,93.7,215.8,93.9z"/>
	<path class="st0" d="M218.7,99.2L218.7,99.2c0.5,0.2,1.1,0,1.3-0.5l3.9-8.7c0.2-0.5,0-1.1-0.5-1.3l0,0c-0.5-0.2-1.1,0-1.3,0.5
		l-3.9,8.7C218,98.4,218.2,99,218.7,99.2z"/>
	<path class="st0" d="M221.6,104.6L221.6,104.6c0.5,0.2,1.1,0,1.3-0.5l3.9-8.7c0.2-0.5,0-1.1-0.5-1.3l0,0c-0.5-0.2-1.1,0-1.3,0.5
		l-3.9,8.7C220.8,103.7,221.1,104.3,221.6,104.6z"/>
	<g>
		<path class="st8" d="M35.6,244.6v6h-4.1v-17.5h6.7c2.1,0,3.7,0.5,4.9,1.6c1.2,1.1,1.8,2.4,1.8,4.2c0,1.7-0.6,3.1-1.8,4.2
			c-1.2,1.1-2.9,1.6-4.9,1.6H35.6z M35.6,241.5h2.6c0.9,0,1.6-0.2,2-0.7c0.5-0.5,0.7-1.1,0.7-1.9c0-0.8-0.2-1.4-0.7-1.9
			c-0.5-0.5-1.1-0.7-2-0.7h-2.6V241.5z"/>
		<path class="st8" d="M59.8,243.1h-6.2v4.4h7.4v3.1H49.6v-17.5h11.4v3.1h-7.4v3.8h6.2V243.1z"/>
		<path class="st8" d="M76,243.1h-6.2v4.4h7.4v3.1H65.8v-17.5h11.4v3.1h-7.4v3.8H76V243.1z"/>
		<path class="st8" d="M86,243.9v6.7H82v-17.5H88c2,0,3.6,0.5,4.8,1.4c1.2,0.9,1.8,2.2,1.8,3.8c0,0.9-0.2,1.7-0.7,2.3
			c-0.5,0.6-1.2,1.2-2.1,1.6c1.1,0.3,1.8,0.8,2.3,1.5c0.5,0.7,0.7,1.6,0.7,2.6v1.1c0,0.5,0.1,1,0.2,1.6c0.1,0.6,0.4,1,0.7,1.2v0.2
			h-4.2c-0.3-0.2-0.5-0.7-0.6-1.3c-0.1-0.6-0.1-1.2-0.1-1.8v-1.1c0-0.8-0.2-1.5-0.7-1.9c-0.4-0.4-1.1-0.7-1.9-0.7H86z M86,240.8h2.1
			c0.8,0,1.4-0.2,1.9-0.6c0.4-0.4,0.6-0.9,0.6-1.6c0-0.7-0.2-1.3-0.7-1.7c-0.4-0.4-1.1-0.7-1.9-0.7h-2V240.8z"/>
		<path class="st8" d="M104.4,250.6h-4v-17.5h4V250.6z"/>
		<path class="st8" d="M124.4,250.6h-4l-6.4-11l-0.1,0v11h-4.1v-17.5h4.1l6.4,11l0.1,0v-10.9h4V250.6z"/>
		<path class="st8" d="M143.4,248.2c-0.6,0.7-1.5,1.4-2.6,1.9c-1.1,0.5-2.5,0.8-4.3,0.8c-2.2,0-3.9-0.7-5.3-2c-1.4-1.3-2-3-2-5.2
			V240c0-2.1,0.7-3.8,2-5.2c1.3-1.3,3-2,5.1-2c2.2,0,3.9,0.5,5.1,1.5c1.1,1,1.7,2.4,1.6,4.1l0,0.1h-3.8c0-0.9-0.2-1.5-0.7-1.9
			s-1.1-0.6-2.1-0.6c-0.9,0-1.7,0.4-2.3,1.1c-0.6,0.7-0.9,1.7-0.9,2.9v3.7c0,1.2,0.3,2.2,0.9,2.9c0.6,0.7,1.4,1.1,2.4,1.1
			c0.7,0,1.3-0.1,1.8-0.2c0.4-0.1,0.8-0.3,1-0.5V244h-3.1v-2.7h7.1V248.2z"/>
	</g>
	<g>
		<path class="st0" d="M230.7,130.8c3,0.1,5.7-2.5,5.7-5.6c0-3.2-2.5-5.5-5.7-5.4c-2.9,0.1-5.4,2.6-5.4,5.5
			C225.3,128,227.9,130.7,230.7,130.8z"/>
		<path class="st3" d="M230.8,127.7c1.3,0,2.5-1.1,2.5-2.4c0-1.4-1.1-2.4-2.5-2.4c-1.3,0-2.3,1.1-2.3,2.4
			C228.4,126.5,229.5,127.7,230.8,127.7z"/>
		<path class="st0" d="M243,124c3,0.1,5.7-2.5,5.7-5.6c0-3.2-2.5-5.5-5.7-5.4c-2.9,0.1-5.4,2.6-5.4,5.5
			C237.5,121.2,240.2,123.9,243,124z"/>
		<path class="st5" d="M230.9,120.8c-2.5,0-4.5,2-4.6,4.4c0,2.4,2,4.5,4.5,4.5c2.5,0,4.5-1.9,4.5-4.4
			C235.3,122.8,233.4,120.8,230.9,120.8z M230.7,127.7c-1.3-0.1-2.3-1.1-2.3-2.4c0-1.4,1.1-2.4,2.5-2.3c1.3,0.1,2.3,1.2,2.3,2.4
			C233.2,126.7,232.1,127.7,230.7,127.7z"/>
		<path class="st5" d="M243,122.9c2.5,0.1,4.6-1.9,4.7-4.3c0.1-2.4-1.9-4.6-4.3-4.7c-2.5-0.1-4.5,1.9-4.6,4.3
			C238.6,120.8,240.5,122.8,243,122.9z M243,116.1c1.4,0,2.5,1,2.5,2.4c0,1.3-1.2,2.5-2.5,2.4c-1.2,0-2.4-1.2-2.4-2.4
			C240.7,117.2,241.7,116.1,243,116.1z"/>
		<path class="st6" d="M234.7,109.5c-2.3,1.3-4.5,2.5-7,3.9c0,0,0,0,0,0l-3.6,2.1c-0.1,0.6-0.3,1.2-0.1,1.6c0.3,0.8,0.5,1.4,0,2.3
			c-0.2,0.4-0.1,1.1,0.1,1.5c0.7,1,0.3,1.7-0.1,2.6c-2,4.1-4,8.3-5.9,12.4c-0.5,1.1-0.7,2.1,0.1,3.1c3.4,4.4,6.8,8.9,10.3,13.3
			c1,1.3,2.2,1.4,3.9,0.4c1.3-0.7,1.1-1.8,0.7-2.9c-1.1-3.3-2.3-6.7-3.4-10c-0.1-0.4-0.5-1.1-0.3-1.3c1.4-2.1,2-4.8,4.4-6.2
			c3.6-2,7.3-3.9,10.8-6.1c2.8-1.8,5.7-2.5,9-2.2c1.1,0.1,1.8,0.4,2.5,1.2c2.2,2.8,4.5,5.5,6.7,8.2c1.2,1.4,2,1.4,3.5,0.3
			c1.3-0.9,1.5-2,0.9-3.4c-1.9-4.9-3.8-9.9-5.6-14.9c-0.6-1.5-1.4-2.2-3.1-2.4c-4.3-0.4-8.6-0.9-12.8-1.3c-1.2-0.1-2.4-0.1-3.1-1.6
			c-0.2-0.4-1-0.5-1.5-0.8c-0.4-0.2-1-0.3-1.1-0.6c-0.6-1.2-1.4-1.5-2.5-1L234.7,109.5C234.7,109.5,234.7,109.5,234.7,109.5z
			 M243.3,113.9c2.4,0.1,4.4,2.2,4.3,4.7c-0.1,2.4-2.2,4.4-4.7,4.3c-2.5-0.1-4.4-2.1-4.3-4.6C238.7,115.8,240.8,113.9,243.3,113.9z
			 M230.8,129.7c-2.5,0-4.5-2.1-4.5-4.5c0-2.5,2.1-4.4,4.6-4.4c2.5,0,4.5,2,4.4,4.5C235.3,127.9,233.3,129.8,230.8,129.7z"/>
		<path class="st3" d="M243,120.9c1.3,0,2.5-1.1,2.5-2.4c0-1.4-1.1-2.4-2.5-2.4c-1.3,0-2.3,1.1-2.3,2.4
			C240.7,119.7,241.8,120.8,243,120.9z"/>
		<path class="st6" d="M235.2,129.2l9.8,17.1c0,0,2.4,1.3,5,0.1c2.6-1.2,2.7-3.9,2.7-3.9l-9.8-19.6L235.2,129.2z"/>
	</g>
	<path class="st6" d="M122.1,215.5c0-5-1.3-6.3-6.3-6.3c-4,0-8.1,0-12.3,0c0-0.1,0-0.1,0-0.2H63c0,0.1,0,0.1,0,0.2
		c-4.5,0-8.8,0-13.1,0c-3.7,0-5.3,1.6-5.3,5.3c0,3.1,0,8.2,0,11.6h77.5C122.1,223.2,122.1,218.3,122.1,215.5z"/>
	<g>
		<polygon class="st6" points="225.1,234.3 221.2,244.9 228.9,244.9 225.1,234.3 		"/>
		<polygon class="st6" points="187.7,234.3 183.9,244.9 191.6,244.9 187.8,234.3 		"/>
		<path class="st6" d="M282.6,237.5c0-1.3-0.4-2.3-1.2-3c-0.8-0.7-2.1-1.1-3.8-1.1h-5v8.1h4.8c1.8,0,3.1-0.4,4-1.1
			C282.2,239.7,282.6,238.7,282.6,237.5z"/>
		<path class="st6" d="M293.2,228.8c0-2.6-1.1-3.6-3.7-3.7c-5.3,0-261.7,0-265,0c-3.3,0-4.1,0.9-4.2,4.2c0,7.6,0,15.2,0,22.8
			c0,4.1,0.6,4.7,4.8,4.7c87.4,0,174.7,0,262.1,0c0.8,0,1.5,0,2.3,0c2.5-0.1,3.6-1.1,3.7-3.7C293.2,245,293.2,236.9,293.2,228.8z
			 M149.5,252.5H26.1v-22.5h123.4V252.5z M176.3,251.9h-1.6v-16.8l-0.1,0l-7.2,16.8h-1.2l-7.3-17.2l-0.1,0v17.2h-1.6v-20h2.2
			l7.4,17.6h0.1l7.4-17.6h2V251.9z M194.1,251.9l-2-5.6h-8.8l-2,5.6h-1.7l7.3-20h1.6l7.3,20H194.1z M213.6,251.9H212l-11.4-17.1
			l-0.1,0v17.1h-1.6v-20h1.6l11.4,17.1l0.1,0v-17.1h1.6V251.9z M231.5,251.9l-2-5.6h-8.8l-2,5.6H217l7.3-20h1.6l7.3,20H231.5z
			 M250.3,249.3c-0.4,0.7-1.3,1.4-2.4,2c-1.2,0.6-2.7,0.9-4.5,0.9c-2.3,0-4.2-0.8-5.6-2.4c-1.5-1.6-2.2-3.6-2.2-6.2V240
			c0-2.5,0.7-4.5,2.1-6c1.4-1.6,3.3-2.3,5.5-2.3c2.2,0,3.9,0.6,5.2,1.7c1.3,1.1,1.9,2.6,1.9,4.4l0,0.1h-1.5c0-1.4-0.5-2.5-1.4-3.4
			c-1-0.9-2.3-1.3-4.1-1.3c-1.8,0-3.2,0.7-4.3,2s-1.6,3-1.6,5v3.7c0,2.1,0.6,3.8,1.7,5.1c1.1,1.3,2.6,2,4.5,2c1.4,0,2.5-0.2,3.4-0.6
			c0.9-0.4,1.5-0.9,1.9-1.5v-5.1h-5.4v-1.4h7V249.3z M267.5,251.9h-12v-20h12v1.4h-10.3v7.5h9v1.4h-9v8.3h10.4V251.9z M285.2,251.9
			h-1.7c-0.3-0.3-0.6-0.8-0.7-1.4c-0.1-0.6-0.2-1.2-0.2-1.9v-1.8c0-1.2-0.4-2.2-1.2-2.9c-0.8-0.7-1.9-1.1-3.3-1.1h-5.5v9h-1.6v-20
			h6.7c2.1,0,3.8,0.5,4.9,1.4c1.1,0.9,1.7,2.3,1.7,4.1c0,1.1-0.3,2-0.9,2.9c-0.6,0.8-1.5,1.4-2.6,1.8c1.2,0.3,2.1,0.9,2.7,1.7
			c0.5,0.8,0.8,1.8,0.8,3v1.9c0,0.6,0.1,1.2,0.2,1.7c0.1,0.5,0.4,0.9,0.7,1.2V251.9z"/>
	</g>
	<g>
		<path class="st5" d="M185.7,159.3c-0.5-3.3-1.4-6.6-3-9.6c-1.9-3.5-4.5-6.1-8.4-7.3c-3.1-1-6.2-1.2-9.4-0.9
			c-2.9,0.3-5.7,1-8.3,2.2c-2.1,1-4,2.3-5.4,4.2c-2.4,3.2-2.7,6.9-2.1,10.7c0.6,3.3,2.5,5.8,5.2,7.7c3.1,2.2,6.5,3,10.2,3
			c2.5,0,5.1-0.3,7.5-0.9c4.7-1,9.2-2.6,13.7-4.2c0.3-0.1,0.3-0.3,0.3-0.5C186,162.2,185.9,160.7,185.7,159.3z"/>
		<path class="st1" d="M240.6,141.2c-0.5-2.3-2.9-4.4-5.8-2.6c-4.7,3-9.4,5.9-14.3,8.7c-7.9,4.6-16,8.8-24.3,12.6
			c-0.9,0.4-1.7,0.8-2.6,1.2c-0.1-0.6-0.1-1.1-0.2-1.6c-0.6-4.4-1.8-8.7-3.9-12.7c-4.1-7.8-10.4-12.1-19.2-12.9
			c-2.6-0.2-5.2-0.2-7.9,0.2c-3.9,0.5-7.6,1.7-11,3.7c-4,2.3-7.1,5.4-8.9,9.7c-1.6,3.9-2,7.9-1.3,12c0.9,5,3.1,9.2,7.2,12.3
			c2.4,1.9,5.2,3.3,8.2,4.1c4.8,1.4,9.6,1.4,14.4,0.8c4.2-0.6,8.2-1.7,12.1-3.1c0.6-0.2,1.2-0.4,1.9-0.7c-0.1,0.5-0.2,0.9-0.4,1.3
			c-2.2,6.8-6.3,12-12.9,15c-4.8,2.2-9.9,3-15.1,3.1c-4.2,0.1-8.4-0.3-12.6-0.6c-2.6-0.2-6.6-0.4-9.3-0.4l0.4,7.7
			c1.8,0,4.5,0,6.3,0.1c3.3,0.2,6.6,0.6,10,0.9c3.4,0.3,6.8,0.2,10.2-0.2c3.9-0.5,7.7-1.4,11.4-2.8c4.1-1.6,7.9-3.7,11.1-6.9
			c5.5-5.6,8.3-12.4,9.2-20.2c0-0.3,0.1-0.4,0.4-0.6c1.2-0.5,2.3-1,3.5-1.5c14.4-6.4,28.2-13.9,41.4-22.5
			C240.3,144.3,240.9,142.9,240.6,141.2z M185.9,164.2c-4.5,1.7-9,3.3-13.7,4.2c-2.5,0.5-5,0.8-7.5,0.9c-3.7,0.1-7.2-0.8-10.2-3
			c-2.7-1.9-4.6-4.4-5.2-7.7c-0.6-3.8-0.3-7.5,2.1-10.7c1.4-1.9,3.3-3.2,5.4-4.2c2.6-1.3,5.4-2,8.3-2.2c3.2-0.3,6.3-0.1,9.4,0.9
			c3.9,1.2,6.5,3.8,8.4,7.3c1.6,3,2.5,6.2,3,9.6c0.2,1.5,0.3,3,0.5,4.4C186.2,164,186.2,164.1,185.9,164.2z"/>
	</g>
	<polygon class="st4" points="238.7,135.2 243.4,143.3 236.7,147.9 231.6,139.7 	"/>
</g>
</svg>
